<svg width="32" height="32" viewBox="0 0 32 32" fill="none" xmlns="http://www.w3.org/2000/svg">
  <rect width="32" height="32" rx="8" fill="#C2185B"/>
  <path d="M16 10C13.5 10 11.5 12 11.5 14.5C11.5 17 13.5 19 16 19C18.5 19 20.5 17 20.5 14.5C20.5 12 18.5 10 16 10Z" fill="white"/>
  <path d="M22 8H20L19 6H13L12 8H10C8.9 8 8 8.9 8 10V22C8 23.1 8.9 24 10 24H22C23.1 24 24 23.1 24 22V10C24 8.9 23.1 8 22 8ZM16 21C12.7 21 10 18.3 10 15C10 11.7 12.7 9 16 9C19.3 9 22 11.7 22 15C22 18.3 19.3 21 16 21Z" fill="white"/>
</svg>
